<svg width="48" height="48" viewBox="0 0 48 48" fill="none" xmlns="http://www.w3.org/2000/svg">
<circle cx="24" cy="24" r="23.5" fill="white" stroke="#DC1215"/>
<path d="M25.8167 11L25.575 20.0054L25.3333 29.0109H21.6167L21.1333 11H25.8167ZM21 34.5608C21 33.8656 21.2222 33.2823 21.6667 32.811C22.1222 32.3279 22.7333 32.0863 23.5 32.0863C24.2667 32.0863 24.8722 32.3279 25.3167 32.811C25.7722 33.2823 26 33.8656 26 34.5608C26 35.2443 25.7722 35.8217 25.3167 36.293C24.8722 36.7643 24.2667 37 23.5 37C22.7333 37 22.1222 36.7643 21.6667 36.293C21.2222 35.8217 21 35.2443 21 34.5608Z" fill="#DC1215"/>
</svg>
